<svg width="346" height="100" viewBox="0 0 346 100" fill="none" xmlns="http://www.w3.org/2000/svg">
<path fill-rule="evenodd" clip-rule="evenodd" d="M147.544 68.5724C151.036 68.5724 153.867 65.7385 153.867 62.2427V31.6488C153.867 14.1697 139.712 0 122.251 0H116.981C99.52 0 85.3648 14.1697 85.3648 31.6488V36.9236C85.3648 54.4028 99.52 68.5724 116.981 68.5724H147.544ZM120.143 58.0228C132.948 58.0228 143.329 47.6317 143.329 34.8137C143.329 21.9956 132.948 11.6046 120.143 11.6046C107.338 11.6046 96.9575 21.9956 96.9575 34.8137C96.9575 47.6317 107.338 58.0228 120.143 58.0228Z" fill="#76B300"/>
<path d="M286.657 0C283.165 0 280.334 2.83393 280.334 6.32976V63.2976C280.334 66.2108 282.693 68.5724 285.603 68.5724C287.565 68.5724 288.546 68.5724 289.339 68.3143C290.944 67.7925 292.201 66.5335 292.722 64.9276C292.98 64.1331 292.98 63.1513 292.98 61.1877V27.429C292.98 18.6894 300.058 11.6046 308.789 11.6046H317.22C325.95 11.6046 333.028 18.6894 333.028 27.429V61.1877C333.028 63.1513 333.028 64.1331 333.286 64.9276C333.807 66.5335 335.065 67.7925 336.669 68.3143C337.463 68.5724 338.444 68.5724 340.405 68.5724C343.316 68.5724 345.675 66.2108 345.675 63.2976V31.6488C345.675 11.0032 334.683 0 314.058 0H286.657Z" fill="#76B300"/>
<path d="M243.448 5.2748C243.448 2.36161 245.807 0 248.717 0H250.825C253.735 0 256.094 2.36161 256.094 5.2748V63.2976C256.094 66.2108 253.735 68.5724 250.825 68.5724H248.717C245.807 68.5724 243.448 66.2108 243.448 63.2976V5.2748Z" fill="#76B300"/>
<path d="M226.536 0.456526C223.877 -0.727359 220.763 0.47072 219.58 3.1325L199.241 48.9087L175.096 2.98079C173.74 0.402793 170.554 -0.587267 167.978 0.769428L166.962 1.3051C164.386 2.6618 163.397 5.85149 164.753 8.42949L193.191 62.5242L180.045 92.1128C178.862 94.7746 180.059 97.8922 182.718 99.076L183.768 99.5435C186.427 100.727 189.541 99.5293 190.724 96.8675L230.259 7.88717C231.442 5.22538 230.245 2.10785 227.586 0.923967L226.536 0.456526Z" fill="#76B300"/>
<path fill-rule="evenodd" clip-rule="evenodd" d="M6.32332 0C2.83105 0 0 2.83392 0 6.32976V93.8915C0 96.8047 2.3592 99.1663 5.26943 99.1663H6.32332C9.23355 99.1663 11.5927 96.8047 11.5927 93.8915V61.4172C17.0452 65.889 24.0178 68.5724 31.6166 68.5724H36.886C54.3474 68.5724 68.5026 54.4028 68.5026 36.9236V31.6488C68.5026 14.1697 54.3474 0 36.886 0H6.32332ZM33.7244 10.5496C23.3339 10.5496 14.5397 17.3915 11.5927 26.8201C10.9079 29.0111 10.5389 31.3418 10.5389 33.7587C10.5389 36.1757 10.9079 38.5064 11.5927 40.6974C14.5397 50.126 23.3339 56.9679 33.7244 56.9679C46.5294 56.9679 56.9099 46.5768 56.9099 33.7587C56.9099 20.9407 46.5294 10.5496 33.7244 10.5496Z" fill="#76B300"/>
</svg>
