<?xml version="1.0" standalone="no"?>
<!DOCTYPE svg PUBLIC "-//W3C//DTD SVG 20010904//EN"
 "http://www.w3.org/TR/2001/REC-SVG-20010904/DTD/svg10.dtd">
<svg version="1.0" xmlns="http://www.w3.org/2000/svg"
 width="700.000000pt" height="700.000000pt" viewBox="0 0 700.000000 700.000000"
 preserveAspectRatio="xMidYMid meet">
<metadata>
Created by potrace 1.14, written by Peter Selinger 2001-2017
</metadata>
<g transform="translate(0.000000,700.000000) scale(0.100000,-0.100000)"
fill="#000000" stroke="none">
<path d="M3020 6994 c-19 -2 -84 -9 -145 -15 -587 -59 -1193 -310 -1667 -691
-585 -471 -994 -1142 -1142 -1871 -57 -279 -61 -339 -61 -907 0 -545 3 -609
46 -850 206 -1160 1045 -2127 2168 -2497 247 -81 503 -132 772 -153 101 -8
643 -10 1814 -8 l1670 3 80 28 c106 38 181 84 255 159 75 76 120 148 157 253
l28 80 0 1745 c0 1843 1 1795 -46 2069 -223 1288 -1247 2337 -2535 2595 -267
54 -324 58 -859 61 -275 2 -516 1 -535 -1z m800 -1195 c418 -42 875 -231 1215
-503 102 -82 276 -257 364 -366 258 -320 432 -714 496 -1121 23 -144 31 -446
16 -594 -93 -929 -724 -1720 -1606 -2014 -280 -93 -520 -127 -825 -118 -366
11 -648 81 -975 242 -471 232 -838 599 -1075 1076 -119 241 -199 511 -230 779
-15 127 -15 411 0 535 121 1018 871 1840 1869 2049 246 52 478 63 751 35z"/>
</g>
</svg>
